<?xml version="1.0" encoding="UTF-8" standalone="no"?>
<!-- Created with Inkscape (http://www.inkscape.org/) -->

<svg
   xmlns:dc="http://purl.org/dc/elements/1.1/"
   xmlns:cc="http://creativecommons.org/ns#"
   xmlns:rdf="http://www.w3.org/1999/02/22-rdf-syntax-ns#"
   xmlns:svg="http://www.w3.org/2000/svg"
   xmlns="http://www.w3.org/2000/svg"
   xmlns:sodipodi="http://sodipodi.sourceforge.net/DTD/sodipodi-0.dtd"
   xmlns:inkscape="http://www.inkscape.org/namespaces/inkscape"
   width="14in"
   height="5.5in"
   viewBox="0 0 355.6 139.7"
   version="1.1"
   id="svg8"
   inkscape:version="0.92.5 (2060ec1f9f, 2020-04-08)"
   sodipodi:docname="laCookery.svg">
  <defs
     id="defs2">
    <inkscape:path-effect
       effect="simplify"
       id="path-effect4609"
       is_visible="true"
       steps="1"
       threshold="0.5"
       smooth_angles="360"
       helper_size="0"
       simplify_individual_paths="false"
       simplify_just_coalesce="false"
       simplifyindividualpaths="false"
       simplifyJustCoalesce="false" />
    <inkscape:path-effect
       effect="simplify"
       id="path-effect4601"
       is_visible="true"
       steps="1"
       threshold="0.5"
       smooth_angles="360"
       helper_size="0"
       simplify_individual_paths="false"
       simplify_just_coalesce="false"
       simplifyindividualpaths="false"
       simplifyJustCoalesce="false" />
    <inkscape:path-effect
       effect="skeletal"
       id="path-effect529"
       is_visible="true"
       pattern="M 0,5 C 0,2.24 2.24,0 5,0 7.76,0 10,2.24 10,5 10,7.76 7.76,10 5,10 2.24,10 0,7.76 0,5 Z"
       copytype="single_stretched"
       prop_scale="1"
       scale_y_rel="false"
       spacing="0"
       normal_offset="0"
       tang_offset="0"
       prop_units="false"
       vertical_pattern="false"
       fuse_tolerance="0" />
    <inkscape:path-effect
       effect="spiro"
       id="path-effect527"
       is_visible="true" />
    <inkscape:path-effect
       effect="powerstroke"
       id="path-effect153"
       is_visible="true"
       offset_points="0,0.13229166"
       sort_points="true"
       interpolator_type="CubicBezierJohan"
       interpolator_beta="0.2"
       start_linecap_type="zerowidth"
       linejoin_type="extrp_arc"
       miter_limit="4"
       end_linecap_type="zerowidth" />
    <inkscape:path-effect
       effect="spiro"
       id="path-effect151"
       is_visible="true" />
    <inkscape:path-effect
       effect="simplify"
       id="path-effect149"
       is_visible="true"
       steps="1"
       threshold="0.5"
       smooth_angles="360"
       helper_size="0"
       simplify_individual_paths="false"
       simplify_just_coalesce="false"
       simplifyindividualpaths="false"
       simplifyJustCoalesce="false" />
  </defs>
  <sodipodi:namedview
     id="base"
     pagecolor="#ffffff"
     bordercolor="#666666"
     borderopacity="1.0"
     inkscape:pageopacity="0.0"
     inkscape:pageshadow="2"
     inkscape:zoom="0.98994949"
     inkscape:cx="599.23635"
     inkscape:cy="31.859294"
     inkscape:document-units="mm"
     inkscape:current-layer="layer1"
     showgrid="false"
     inkscape:snap-text-baseline="true"
     showguides="true"
     inkscape:guide-bbox="true"
     units="in"
     width="13in"
     inkscape:window-width="3840"
     inkscape:window-height="2050"
     inkscape:window-x="0"
     inkscape:window-y="0"
     inkscape:window-maximized="1">
    <sodipodi:guide
       position="105.64435,28.348214"
       orientation="0,1"
       id="guide5902"
       inkscape:locked="false" />
    <sodipodi:guide
       position="309.75149,65.578869"
       orientation="0,1"
       id="guide5904"
       inkscape:locked="false" />
  </sodipodi:namedview>
  <metadata
     id="metadata5">
    <rdf:RDF>
      <cc:Work
         rdf:about="">
        <dc:format>image/svg+xml</dc:format>
        <dc:type
           rdf:resource="http://purl.org/dc/dcmitype/StillImage" />
        <dc:title></dc:title>
      </cc:Work>
    </rdf:RDF>
  </metadata>
  <g
     inkscape:label="Layer 1"
     inkscape:groupmode="layer"
     id="layer1"
     transform="translate(0,-157.3)">
    <path
       style="fill:#ff0000;fill-opacity:1;stroke-width:0.18320438"
       d="m 161.03731,215.27987 c -10.32053,-0.4076 -15.4135,-1.73653 -16.42168,-4.28492 -0.10759,-0.27168 0.0868,-1.20727 0.49543,-2.38662 0.36966,-1.06683 0.94458,-2.74512 1.27753,-3.72959 0.33295,-0.98446 0.67125,-1.78993 0.75177,-1.78993 0.0806,0 0.62694,0.99274 1.21426,2.2061 0.98043,2.02557 1.11151,2.20116 1.60223,2.1454 0.29391,-0.0333 1.25584,-0.16389 2.13762,-0.29001 2.2201,-0.31769 10.09434,-0.31976 13.76119,-9.5e-4 3.76381,0.32462 9.04291,0.97361 15.498,1.90526 10.67301,1.54043 16.9331,2.20693 24.258,2.58267 1.65822,0.0854 2.97483,0.17345 2.92578,0.1966 -0.0492,0.0245 -1.70644,0.13591 -3.68306,0.25069 -4.3699,0.25395 -14.17324,0.29177 -18.02299,0.0692 -4.18512,-0.24172 -9.91427,-0.74251 -16.1604,-1.41275 -7.83936,-0.84129 -10.0637,-0.81612 -12.09072,0.13699 -0.80744,0.3796 -1.00807,0.5676 -1.00807,0.94486 0,0.95857 1.83825,1.71544 5.15195,2.12115 3.92925,0.48106 17.815,0.55623 25.97769,0.1404 4.72748,-0.24075 5.14346,-0.22611 2.13762,0.0755 -3.07446,0.30828 -10.59756,0.81547 -14.56275,0.98178 -4.41778,0.18569 -12.27241,0.25786 -15.2394,0.14041 z m 32.55775,-1.47445 c 0.1928,-0.0363 0.42334,-0.0315 0.5122,0.008 0.0887,0.0418 -0.0691,0.0716 -0.35074,0.066 -0.31131,-0.005 -0.37464,-0.0358 -0.1612,-0.0757 z m 15.84515,-3.15384 c -0.53269,-0.5936 -3.1101,-1.6379 -5.54679,-2.24748 -2.50192,-0.62585 -9.22134,-1.89916 -13.16511,-2.49467 -6.04399,-0.9127 -14.67393,-1.75864 -22.46779,-2.20232 -7.48277,-0.42599 -7.42699,-0.4863 0.40078,-0.43305 8.87423,0.0604 14.54984,0.35515 22.17816,1.15196 3.6003,0.37601 9.3821,1.184 12.08642,1.68898 1.10537,0.20619 2.07315,0.34552 2.15056,0.30909 0.0779,-0.0363 0.19704,-0.90073 0.26597,-1.92056 0.21151,-3.13726 -0.59114,-4.63221 -3.12323,-5.81689 -1.29956,-0.60803 -1.94318,-0.7854 -4.96666,-1.36907 -6.93914,-1.33955 -12.66784,-2.10978 -17.81266,-2.39502 -3.85512,-0.21374 -11.56271,-0.0973 -16.38992,0.24831 -8.53688,0.61043 -11.16502,0.9784 -13.2336,1.85269 -1.59999,0.67621 -2.24597,1.15678 -3.03595,2.25851 l -0.61303,0.85496 -1.71256,0.10133 c -2.43905,0.14387 -7.5914,9.5e-4 -10.33032,-0.27765 -6.61377,-0.68327 -11.92391,-2.14386 -15.79777,-4.34535 -2.84914,-1.61918 -4.62626,-3.27434 -5.70659,-5.31497 -0.81067,-1.53125 -0.79689,-4.1693 0.0296,-5.61314 1.8799,-3.28527 6.34195,-5.77409 12.95992,-7.22868 2.59328,-0.57 4.36253,-0.7889 13.12491,-1.62414 11.40457,-1.08699 15.78526,-1.72024 19.65036,-2.84039 1.09636,-0.31781 2.11363,-0.60863 2.26059,-0.64646 0.14696,-0.038 -0.33398,0.22734 -1.06884,0.58893 -3.65557,1.79942 -9.35467,2.97037 -21.12235,4.33993 -8.60474,1.00142 -11.36425,1.50542 -14.817,2.70611 -7.17632,2.49568 -9.83041,7.72264 -5.82793,11.47764 3.06629,2.8767 8.92722,5.01116 15.39179,5.60544 2.24725,0.20664 5.66717,0.0915 7.55898,-0.25426 1.64529,-0.30073 3.78374,-1.01244 4.59859,-1.53047 l 0.52608,-0.33436 -2.563,-1.15188 c -2.74682,-1.23442 -4.33138,-2.28554 -5.56437,-3.69105 -0.72896,-0.83108 -1.56139,-2.14054 -1.56139,-2.45629 0,-0.0794 0.77868,0.34127 1.73027,0.93447 3.77595,2.35341 6.44155,3.53304 10.03697,4.44161 4.29278,1.08484 8.66492,1.32528 17.62555,0.96917 2.86579,-0.11352 5.69148,-0.26628 6.27935,-0.33867 3.58528,-0.44174 6.33713,-2.00933 7.16916,-4.08389 l 0.34619,-0.86326 0.31726,0.66569 c 0.57968,1.2163 0.2796,2.9622 -0.65735,3.82487 -0.42131,0.38792 -0.44283,0.38285 1.47011,0.34679 3.11216,-0.0587 6.74041,-0.82338 9.40851,-1.98295 3.68083,-1.59966 5.79192,-3.79701 6.30248,-6.55988 l 0.19705,-1.06769 0.38225,0.69084 c 0.24553,0.44353 0.39367,1.41038 0.41427,2.70064 0.0315,1.94203 0.005,2.0459 -0.78435,3.08293 -0.99898,1.31332 -2.38069,2.31577 -4.30024,3.12003 l -1.45395,0.6092 2.43201,0.2222 c 3.90105,0.35621 6.55125,0.10953 10.31494,-0.96042 1.96362,-0.55815 5.26573,-1.99865 6.40575,-2.79439 1.09601,-0.76508 1.20007,-0.54229 0.35427,0.75828 -0.97885,1.50513 -3.27552,3.05498 -5.47342,3.69352 -1.19919,0.34838 -1.04181,0.43559 2.10106,1.16401 7.70774,1.78638 16.0116,1.85698 22.62676,0.19236 8.11869,-2.04288 12.98976,-6.22276 11.39546,-9.7785 -1.5612,-3.48191 -7.96381,-5.89194 -15.67837,-5.9015 -5.80199,-0.008 -12.72538,1.40174 -16.63003,3.38429 -0.83726,0.42513 -1.52231,0.71917 -1.52231,0.65344 0,-0.31225 1.21851,-1.93126 2.02495,-2.69046 l 0.90149,-0.84881 -0.69479,-0.90976 c -2.27513,-2.97952 -5.91668,-4.91259 -11.6665,-6.19311 -5.62161,-1.25197 -13.41572,-1.38958 -20.15268,-0.35576 -1.09879,0.16877 -4.24007,0.79276 -6.98052,1.38703 -13.54075,2.93634 -21.67418,4.02218 -32.63861,4.35736 -1.67116,0.0508 -1.84864,0.0398 -1.06877,-0.0691 10.98937,-1.53114 16.97586,-2.91729 29.36628,-6.79975 9.21931,-2.88884 11.83336,-3.37095 18.33014,-3.38067 6.28904,-0.008 11.88888,0.83126 17.65451,2.65029 6.11447,1.92906 9.7828,4.16007 11.11759,6.76156 0.31297,0.60999 0.60561,1.17805 0.65021,1.26235 0.0556,0.10444 0.57405,0.0386 1.63363,-0.20862 2.7119,-0.63249 4.63462,-0.81433 8.49065,-0.80298 2.84838,0.008 3.95478,0.0699 6.14581,0.34079 13.54182,1.67504 18.79936,7.25593 12.98739,13.78622 -3.03427,3.40936 -7.96241,5.5358 -14.85782,6.41096 -3.11176,0.39498 -10.43316,0.39669 -14.88428,9.6e-4 -1.71989,-0.15211 -3.19171,-0.2762 -3.27064,-0.2762 -0.0789,0 -0.17435,2.67077 -0.21329,5.93508 -0.0611,5.19823 -0.11584,5.88375 -0.44039,5.52165 z"
       id="path33"
       inkscape:connector-curvature="0" />
    <g
       id="g77"
       transform="matrix(1.4941537,0,0,1.4941537,-27.98545,-88.723165)"
       style="fill:#8902ff;fill-opacity:1" />
    <g
       id="g5561"
       transform="matrix(2.2264877,0,0,2.2264877,-105.99226,-246.21963)"
       style="fill:#8902ff;fill-opacity:1" />
    <g
       id="g5549"
       transform="matrix(2.2264877,0,0,2.2264877,-99.997744,-254.39015)"
       style="fill:#8902ff;fill-opacity:1">
      <g
         id="g5557"
         transform="translate(0.85044643,3.7325149)"
         style="fill:#8902ff;fill-opacity:1">
        <g
           id="g5552"
           style="fill:#8902ff;fill-opacity:1" />
      </g>
    </g>
    <g
       id="g5919"
       style="fill:#ff0000;fill-opacity:1">
      <path
         d="m 36.498725,268.65179 q -1.460666,0 -2.456574,-0.99591 -0.929515,-0.99591 -0.929515,-2.45658 v -44.94866 q 0,-1.46067 0.995909,-2.45657 0.995908,-0.99591 2.39018,-0.99591 1.460665,0 2.456574,0.99591 0.995908,0.9959 0.995908,2.45657 v 41.49618 h 24.034589 q 1.460665,0 2.456574,0.99591 0.995908,0.99591 0.995908,2.45657 0,1.46067 -0.995908,2.45658 -0.995909,0.99591 -2.456574,0.99591 z"
         style="font-style:normal;font-variant:normal;font-weight:bold;font-stretch:normal;font-size:66.39389038px;line-height:1.25;font-family:Comfortaa;-inkscape-font-specification:'Comfortaa Bold';letter-spacing:0px;word-spacing:0px;fill:#ff0000;fill-opacity:1;stroke:none;stroke-width:1.65984726"
         id="path5874"
         inkscape:connector-curvature="0" />
      <path
         d="m 69.135638,268.85097 q -4.846754,0 -8.697599,-2.39018 -3.850846,-2.45657 -6.108238,-6.57299 -2.190999,-4.18282 -2.190999,-9.42794 0,-5.24511 2.39018,-9.42793 2.456574,-4.18281 6.572995,-6.57299 4.182816,-2.45658 9.361539,-2.45658 5.178723,0 9.295145,2.45658 4.116421,2.39018 6.506601,6.57299 2.456574,4.18282 2.456574,9.42793 h -2.589362 q 0,5.24512 -2.257392,9.42794 -2.190999,4.11642 -6.041844,6.57299 -3.850846,2.39018 -8.6976,2.39018 z m 1.327878,-5.97545 q 3.386088,0 6.041844,-1.59345 2.655756,-1.65985 4.182815,-4.44839 1.52706,-2.85494 1.52706,-6.37382 0,-3.58527 -1.52706,-6.37381 -1.527059,-2.85494 -4.182815,-4.44839 -2.655756,-1.65985 -6.041844,-1.65985 -3.319695,0 -6.041844,1.65985 -2.655756,1.59345 -4.249209,4.44839 -1.52706,2.78854 -1.52706,6.37381 0,3.51888 1.52706,6.37382 1.593453,2.78854 4.249209,4.44839 2.722149,1.59345 6.041844,1.59345 z m 14.872231,5.77627 q -1.460665,0 -2.456574,-0.92952 -0.929514,-0.9959 -0.929514,-2.45657 v -10.15826 l 1.261484,-7.03776 5.510693,2.39018 v 14.80584 q 0,1.46067 -0.995909,2.45657 -0.929514,0.92952 -2.39018,0.92952 z"
         style="font-style:normal;font-variant:normal;font-weight:bold;font-stretch:normal;font-size:66.39389038px;line-height:1.25;font-family:Comfortaa;-inkscape-font-specification:'Comfortaa Bold';letter-spacing:0px;word-spacing:0px;fill:#ff0000;fill-opacity:1;stroke:none;stroke-width:1.65984726"
         id="path5876"
         inkscape:connector-curvature="0" />
      <path
         d="m 110.63702,268.65179 q -5.3779,0 -10.09187,-1.99181 -4.647574,-2.05821 -8.16645,-5.64348 -3.452482,-3.65167 -5.444299,-8.49842 -1.925423,-4.84676 -1.925423,-10.49024 0,-5.57708 1.925423,-10.35744 1.991817,-4.84676 5.444299,-8.43203 3.518876,-3.65166 8.16645,-5.70987 4.64757,-2.05821 10.09187,-2.05821 5.11233,0 8.764,1.32788 3.71805,1.32787 7.43611,4.38199 0.53115,0.39837 0.79673,0.86312 0.33197,0.39837 0.39836,0.86312 0.13279,0.39837 0.13279,0.99591 0,1.26149 -0.92951,2.12461 -0.86312,0.79672 -2.12461,0.92951 -1.26148,0.0664 -2.45657,-0.86312 -2.45658,-2.1246 -5.11233,-3.2533 -2.58936,-1.1287 -6.90497,-1.1287 -3.91724,0 -7.36972,1.59346 -3.452481,1.59345 -6.10824,4.38199 -2.589361,2.78855 -4.050027,6.50661 -1.460666,3.65166 -1.460666,7.83447 0,4.24921 1.460666,7.96727 1.460666,3.65167 4.050027,6.44021 2.655759,2.78854 6.10824,4.382 3.45248,1.52705 7.36972,1.52705 3.38609,0 6.37382,-1.12869 3.05412,-1.19509 5.84266,-3.2533 1.19509,-0.86312 2.32379,-0.73033 1.19509,0.0664 1.99181,0.92951 0.79673,0.79673 0.79673,2.25739 0,0.66394 -0.26558,1.32788 -0.26557,0.59754 -0.79672,1.1287 -3.58527,2.85493 -7.7017,4.3156 -4.05002,1.46066 -8.56481,1.46066 z"
         style="font-style:normal;font-variant:normal;font-weight:bold;font-stretch:normal;font-size:66.39389038px;line-height:1.25;font-family:Comfortaa;-inkscape-font-specification:'Comfortaa Bold';letter-spacing:0px;word-spacing:0px;fill:#ff0000;fill-opacity:1;stroke:none;stroke-width:1.65984726"
         id="path5878"
         inkscape:connector-curvature="0" />
      <path
         d="m 234.17379,255.37301 -4.11643,-4.51479 20.38293,-18.19192 q 0.99591,-0.92952 2.191,-0.86312 1.26148,0.0664 2.1246,1.0623 0.92952,0.99591 0.86312,2.191 -0.0664,1.19509 -1.0623,2.1246 z m -3.12052,13.27878 q -1.46066,0 -2.39018,-0.86313 -0.86312,-0.92951 -0.86312,-2.39018 v -45.34702 q 0,-1.46067 0.86312,-2.32379 0.92952,-0.92951 2.39018,-0.92951 1.46067,0 2.32379,0.92951 0.92951,0.86312 0.92951,2.32379 v 45.34702 q 0,1.46067 -0.92951,2.39018 -0.86312,0.86313 -2.32379,0.86313 z m 23.70262,-0.33197 q -1.0623,0.86312 -2.39018,0.73033 -1.26148,-0.0664 -2.1246,-1.1287 l -13.47796,-16.66486 4.64757,-4.382 13.80993,16.99684 q 0.86312,1.0623 0.73033,2.32378 -0.0664,1.19509 -1.19509,2.12461 z"
         style="font-style:normal;font-variant:normal;font-weight:bold;font-stretch:normal;font-size:66.39389038px;line-height:1.25;font-family:Comfortaa;-inkscape-font-specification:'Comfortaa Bold';letter-spacing:0px;word-spacing:0px;fill:#ff0000;fill-opacity:1;stroke:none;stroke-width:1.65984726"
         id="path5884"
         inkscape:connector-curvature="0" />
      <path
         d="m 272.10909,268.65179 q -5.51069,0 -9.8263,-2.32379 -4.24921,-2.39018 -6.70578,-6.5066 -2.39018,-4.18281 -2.39018,-9.56072 0,-5.4443 2.25739,-9.56072 2.32379,-4.18281 6.37382,-6.5066 4.05002,-2.39018 9.29514,-2.39018 5.17872,0 8.89678,2.32379 3.71806,2.25739 5.64348,6.30742 1.99182,3.98363 1.99182,9.22875 0,1.26148 -0.86312,2.1246 -0.86312,0.79673 -2.191,0.79673 H 257.8344 v -5.31151 h 26.55756 l -2.72215,1.85903 q -0.0664,-3.3197 -1.32788,-5.90906 -1.26148,-2.65575 -3.58527,-4.18281 -2.32379,-1.52706 -5.64348,-1.52706 -3.78445,0 -6.5066,1.65984 -2.65576,1.65985 -4.05003,4.58118 -1.39427,2.85494 -1.39427,6.5066 0,3.65167 1.65985,6.5066 1.65984,2.85494 4.58118,4.51479 2.92133,1.65985 6.70578,1.65985 2.05821,0 4.18281,-0.73034 2.191,-0.79672 3.51888,-1.79263 0.99591,-0.73033 2.1246,-0.73033 1.19509,-0.0664 2.05821,0.66393 1.1287,0.99591 1.19509,2.191 0.0664,1.19509 -1.0623,2.05821 -2.25739,1.79264 -5.64348,2.92133 -3.31969,1.1287 -6.37381,1.1287 z"
         style="font-style:normal;font-variant:normal;font-weight:bold;font-stretch:normal;font-size:66.39389038px;line-height:1.25;font-family:Comfortaa;-inkscape-font-specification:'Comfortaa Bold';letter-spacing:0px;word-spacing:0px;fill:#ff0000;fill-opacity:1;stroke:none;stroke-width:1.65984726"
         id="path5886"
         inkscape:connector-curvature="0" />
      <path
         d="m 290.12218,245.94507 q 0,-3.98363 1.92542,-7.10414 1.99182,-3.18691 5.31151,-5.04594 3.3197,-1.85903 7.30333,-1.85903 3.98363,0 5.90906,1.32788 1.99181,1.26149 1.52706,3.05412 -0.19919,0.92952 -0.79673,1.46067 -0.53115,0.46475 -1.26148,0.59754 -0.73034,0.13279 -1.59346,-0.0664 -4.24921,-0.86312 -7.6353,-0.13279 -3.38608,0.73033 -5.3779,2.72215 -1.92542,1.99182 -1.92542,5.04593 z m 0.0664,22.70672 q -1.59345,0 -2.45657,-0.79673 -0.86312,-0.86312 -0.86312,-2.52297 v -29.67807 q 0,-1.59345 0.86312,-2.45657 0.86312,-0.86312 2.45657,-0.86312 1.65985,0 2.45658,0.86312 0.86312,0.79672 0.86312,2.45657 v 29.67807 q 0,1.59345 -0.86312,2.45657 -0.79673,0.86313 -2.45658,0.86313 z"
         style="font-style:normal;font-variant:normal;font-weight:bold;font-stretch:normal;font-size:66.39389038px;line-height:1.25;font-family:Comfortaa;-inkscape-font-specification:'Comfortaa Bold';letter-spacing:0px;word-spacing:0px;fill:#ff0000;fill-opacity:1;stroke:none;stroke-width:1.65984726"
         id="path5888"
         inkscape:connector-curvature="0" />
      <path
         d="m 318.31382,285.9142 q -0.66394,0 -1.59345,-0.39836 -2.92133,-1.32788 -1.59345,-4.18282 l 20.25013,-45.74539 q 1.32788,-2.78854 4.18282,-1.59345 2.98772,1.26148 1.65984,4.18281 l -20.31653,45.679 q -0.79672,2.05821 -2.58936,2.05821 z m 7.83448,-17.3952 q -1.26148,0.53115 -2.39018,0.13279 -1.0623,-0.46476 -1.72624,-1.72624 l -15.2042,-28.88135 q -0.66394,-1.26148 -0.19918,-2.39018 0.53115,-1.19509 1.79263,-1.72624 1.26149,-0.53115 2.39018,-0.0664 1.1287,0.39836 1.72624,1.65985 l 14.54027,28.88134 q 0.66394,1.26148 0.46475,2.45657 -0.13278,1.1287 -1.39427,1.65985 z"
         style="font-style:normal;font-variant:normal;font-weight:bold;font-stretch:normal;font-size:66.39389038px;line-height:1.25;font-family:Comfortaa;-inkscape-font-specification:'Comfortaa Bold';letter-spacing:0px;word-spacing:0px;fill:#ff0000;fill-opacity:1;stroke:none;stroke-width:1.65984726"
         id="path5890"
         inkscape:connector-curvature="0" />
    </g>
    <path
       inkscape:connector-curvature="0"
       style="fill:#8902ff;fill-opacity:1;stroke-width:0.15977624"
       d="m 143.52552,267.65183 c -15.49952,-4.05871 -22.30498,-22.38891 -13.23872,-35.65785 4.25707,-6.23047 10.35744,-9.65008 17.94788,-10.06089 4.44809,-0.24073 7.90875,0.4453 11.83429,2.346 3.24773,1.57253 8.45277,6.63273 10.08276,9.8022 l 1.12444,2.18648 1.09935,-1.09933 c 0.99734,-0.99733 1.36175,-1.09935 3.92744,-1.09935 2.56571,0 2.93012,0.10198 3.92746,1.09935 l 1.09933,1.09933 1.12446,-2.18648 c 1.62874,-3.16709 6.83514,-8.22974 10.07813,-9.7999 10.69625,-5.17888 23.18662,-1.94707 29.78223,7.70591 4.48549,6.56474 5.32554,15.19262 2.19118,22.50479 -2.72137,6.34867 -8.72211,11.42386 -15.58158,13.17822 -8.2816,2.11808 -16.23591,-0.11355 -22.3767,-6.27798 -5.01698,-5.0363 -6.91224,-10.07876 -6.6036,-17.56948 0.17455,-4.2342 0.16431,-4.29497 -0.7695,-4.65005 -1.21882,-0.46339 -4.524,-0.46339 -5.74282,0 -0.93388,0.35508 -0.94394,0.41585 -0.76948,4.65005 0.30862,7.49072 -1.58661,12.53318 -6.6036,17.56948 -6.1442,6.16781 -14.26656,8.42414 -22.53295,6.2595 z"
       id="path5819" />
    <path
       inkscape:connector-curvature="0"
       style="fill:#ffffff;fill-opacity:1;stroke-width:0.15977624"
       d="m 155.39802,263.69389 c 3.06601,-0.88728 6.86613,-3.30319 8.86665,-5.63693 2.12946,-2.48418 4.11941,-6.82372 4.62402,-10.08385 1.27649,-8.24669 -3.18871,-16.64208 -10.8454,-20.39151 -12.93634,-6.33478 -27.99372,3.10869 -27.99372,17.5567 0,7.51961 4.07908,14.08244 10.81862,17.4061 4.92899,2.43077 8.99171,2.75219 14.52983,1.14949 z"
       id="path5817" />
    <path
       inkscape:connector-curvature="0"
       style="fill:#ffffff;fill-opacity:1;stroke-width:0.15977624"
       d="m 208.12688,264.03904 c 4.62208,-1.15029 10.06934,-5.49294 12.22162,-9.74324 3.79304,-7.4906 2.65134,-16.38096 -2.86583,-22.31589 -11.24663,-12.09826 -31.24537,-5.95748 -33.77265,10.3702 -2.11156,13.6418 10.7709,25.08497 24.41686,21.68893 z"
       id="path4698" />
    <path
       inkscape:connector-curvature="0"
       style="fill:#8902ff;fill-opacity:1;stroke-width:0.15977624"
       d="m 127.09121,225.01506 c 0,-0.23616 1.97543,-1.39694 4.0429,-2.37562 4.80993,-2.27683 9.61151,-3.81754 14.68928,-4.71343 2.20311,-0.38872 7.80958,-0.39295 9.43133,-0.009 1.58742,0.37759 2.93458,1.1033 3.89756,2.09952 0.73594,0.76132 0.79695,0.87688 0.57421,1.08743 -0.26842,0.25378 -0.29269,0.25048 -4.29051,-0.58496 -2.5068,-0.52385 -4.547,-0.67714 -7.80397,-0.58632 -3.30689,0.0922 -5.72132,0.42049 -8.79209,1.19553 -2.97004,0.74959 -7.08582,2.13618 -9.26107,3.12002 -2.04488,0.92484 -2.48764,1.06099 -2.48764,0.76496 z"
       id="path5855" />
    <path
       inkscape:connector-curvature="0"
       style="fill:#8902ff;fill-opacity:1;stroke-width:0.15977624"
       d="m 165.49196,247.94301 c -2.42168,-2.33917 -4.5938,-3.60331 -7.44524,-4.33293 -1.52501,-0.39019 -4.90117,-0.42991 -7.1293,-0.0842 -1.64358,0.25531 -1.68294,0.13537 -0.10487,-0.32008 3.96482,-1.14426 8.33011,-0.51414 11.96024,1.72642 1.38541,0.85515 3.12348,2.42738 3.94828,3.57166 0.9361,1.29872 0.4815,1.09118 -1.22902,-0.56114 z"
       id="path5853" />
    <path
       inkscape:connector-curvature="0"
       style="fill:#8902ff;fill-opacity:1;stroke-width:0.15977624"
       d="m 185.63593,249.26797 c 0,-0.11066 0.16209,-0.42132 0.35929,-0.69084 2.02053,-2.75579 5.37478,-4.94438 8.73172,-5.69736 1.96312,-0.44031 4.7797,-0.44403 6.56496,-0.009 1.51501,0.36944 2.21482,0.70279 1.18656,0.56521 -4.67843,-0.62604 -7.18447,-0.40464 -10.16685,0.89817 -1.79533,0.7843 -2.59451,1.34731 -4.74492,3.34271 -1.06194,0.98538 -1.93076,1.70124 -1.93076,1.59081 z"
       id="path5849" />
    <path
       inkscape:connector-curvature="0"
       style="fill:#8902ff;fill-opacity:1;stroke-width:0.15977624"
       d="m 185.46493,252.84099 c 0.16699,-0.30757 0.50219,-0.73398 0.74521,-0.94759 0.24309,-0.21352 0.51461,-0.51601 0.60353,-0.67207 0.14317,-0.25148 0.12291,-0.26406 -0.17945,-0.1111 -0.63851,0.32311 -0.34359,-0.11355 0.68593,-1.01517 3.54731,-3.1072 9.6867,-5.42564 14.33672,-5.41408 1.69649,0.007 1.92762,0.0445 3.76398,0.65657 1.10254,0.36744 2.25679,0.65207 2.64447,0.65207 0.76473,0 1.89425,-0.33522 3.59979,-1.0684 0.62426,-0.26838 1.1634,-0.46115 1.19807,-0.4284 0.116,0.10999 -1.60692,1.78987 -2.17857,2.12393 -0.31096,0.18146 -0.56538,0.38485 -0.56538,0.45142 0,0.0666 0.4355,0.34052 0.96779,0.60877 0.81563,0.41099 1.14517,0.48753 2.09506,0.48655 1.38018,-0.001 2.89891,-0.22242 4.38823,-0.63866 0.61872,-0.173 1.15583,-0.28508 1.19364,-0.24939 0.0376,0.0358 -0.0946,0.26134 -0.2943,0.50134 -0.33495,0.40259 -3.10555,1.78615 -3.57685,1.78615 -0.10999,0 -0.17099,0.0831 -0.13492,0.1848 0.23623,0.67028 2.17959,1.13395 5.51512,1.31581 1.57412,0.0857 1.8484,0.13849 1.80748,0.34898 -0.16342,0.83988 -4.86641,1.87911 -8.50382,1.87911 h -2.08636 l -1.41851,-1.04881 c -2.49997,-1.84816 -5.49892,-3.26383 -8.36665,-3.94948 -1.10721,-0.26473 -1.66372,-0.3091 -3.00405,-0.23952 -3.42725,0.17789 -7.97837,1.95931 -11.24507,4.40159 -0.97717,0.7306 -1.42266,0.9681 -1.79689,0.95803 l -0.4976,-0.0134 z"
       id="path5847" />
    <path
       inkscape:connector-curvature="0"
       style="fill:#8902ff;fill-opacity:1;stroke-width:0.15977624"
       d="m 223.21786,224.50579 c -3.47597,-1.79768 -10.48331,-3.79785 -15.47157,-4.4161 -2.4126,-0.299 -6.72435,-0.29888 -8.8474,2.9e-4 -0.90377,0.12735 -2.61605,0.45075 -3.80509,0.71866 -2.05948,0.46405 -3.01408,0.506 -3.01408,0.1327 0,-0.0839 0.43452,-0.56323 0.9656,-1.06537 1.96577,-1.85861 4.34299,-2.45446 9.13989,-2.29095 5.79784,0.19749 12.09731,1.88731 18.71508,5.01993 1.8727,0.88643 3.91724,2.06079 4.11519,2.36364 0.2296,0.3511 -0.67371,0.11867 -1.79762,-0.4626 z"
       id="path5857" />
    <path
       inkscape:connector-curvature="0"
       style="fill:#8902ff;fill-opacity:1;stroke-width:0.15977624"
       d="m 137.26303,253.42179 c -2.56052,-0.28089 -6.07259,-1.21965 -6.34172,-1.69507 -0.25696,-0.45398 -0.23004,-0.47028 0.78305,-0.47028 1.2286,0 4.81625,-0.42002 5.4097,-0.63334 0.48085,-0.173 1.03485,-0.5821 1.03485,-0.76436 0,-0.059 -0.31423,-0.19548 -0.69832,-0.30416 -1.06884,-0.30218 -2.15624,-0.86819 -2.84077,-1.47856 -0.34063,-0.30374 -0.58788,-0.58196 -0.54948,-0.61832 0.0383,-0.0363 0.84469,0.11511 1.79166,0.33696 1.26086,0.29512 2.18374,0.40693 3.44716,0.41764 1.55809,0.0134 1.80419,-0.0247 2.53906,-0.39033 0.44753,-0.22269 0.83518,-0.4674 0.86143,-0.54377 0.026,-0.0764 -0.21953,-0.311 -0.54627,-0.52142 -0.78009,-0.50248 -2.41184,-2.0872 -2.21348,-2.14972 0.0851,-0.0267 0.52616,0.12936 0.98005,0.34657 1.20511,0.5774 3.19129,1.17595 3.90219,1.17595 0.33969,0 1.50978,-0.29666 2.60009,-0.65922 1.89251,-0.62932 2.06444,-0.65853 3.78995,-0.6435 4.85245,0.0421 10.589,2.215 14.35474,5.43701 1.02279,0.87513 1.3115,1.31196 0.64382,0.97412 -0.26349,-0.13337 -0.17901,0.0272 0.30324,0.57715 0.88655,1.01064 1.23724,1.54079 1.10316,1.66761 -0.28793,0.27221 -0.96193,0.0421 -1.82412,-0.62255 -2.76694,-2.13335 -6.69502,-3.89838 -9.97996,-4.48439 -1.82906,-0.32627 -3.95086,-0.2346 -5.58681,0.24144 -1.95176,0.56796 -6.18833,2.76597 -7.83918,4.06713 -0.42548,0.33531 -1.01648,0.67556 -1.31345,0.75609 -0.6211,0.16832 -2.1747,0.16075 -3.81059,-0.0178 z"
       id="path5851" />
  </g>
</svg>
